<?xml version="1.0" standalone="no"?>
<!DOCTYPE svg PUBLIC "-//W3C//DTD SVG 1.1//EN" "http://www.w3.org/Graphics/SVG/1.1/DTD/svg11.dtd" >
<!--
2016-6-22: Created.
-->
<svg xmlns="http://www.w3.org/2000/svg">
<metadata>
Created by FontForge 20120731 at Wed Jun 22 15:43:35 2016
 By root
Created by root with FontForge 2.0 (http://fontforge.sf.net)
</metadata>
<defs>
<font id="Flaticon" horiz-adv-x="512" >
  <font-face 
    font-family="Flaticon"
    font-weight="500"
    font-stretch="normal"
    units-per-em="512"
    panose-1="2 0 6 3 0 0 0 0 0 0"
    ascent="448"
    descent="-64"
    bbox="-0.0144613 -64.001 512.013 448"
    underline-thickness="25.6"
    underline-position="-51.2"
    unicode-range="U+0020-F131"
  />
    <missing-glyph />
    <glyph glyph-name="space" unicode=" " horiz-adv-x="200" 
 />
    <glyph glyph-name="uniF130" unicode="&#xf130;" 
d="M126.087 318.087c0 71.749 58.1641 129.913 129.913 129.913s129.913 -58.1641 129.913 -129.913s-58.1641 -129.913 -129.913 -129.913s-129.913 58.1641 -129.913 129.913zM353.913 318.087c0 53.9883 -43.9238 97.9131 -97.9131 97.9131
s-97.9131 -43.9248 -97.9131 -97.9131c0 -53.9893 43.9229 -97.9131 97.9131 -97.9131s97.9131 43.9238 97.9131 97.9131zM461.702 -64h-411.404c2.24609 124.1 93.3896 223.983 205.702 223.983s203.456 -99.8838 205.702 -223.983zM256 127.983
c-84.0479 0 -155.316 -69.2637 -170.681 -159.983h341.361c-15.3643 90.7188 -86.6328 159.983 -170.681 159.983z" />
    <glyph glyph-name="uniF117" unicode="&#xf117;" 
d="M484.465 448c15.207 0 27.5352 -12.6328 27.5361 -28.2158v-344.068c0 -15.583 -12.3281 -28.2158 -27.5352 -28.2158h-265.514c-5.36816 0 -10.6182 -1.60742 -15.1055 -4.62402l-156.6 -106.876l33.3906 111.322h-53.1016c-15.207 0 -27.5361 12.6328 -27.5361 28.2168
v344.245c0 15.583 12.3291 28.2158 27.5361 28.2158h456.929zM480 79.5v336.5h-448v-336.679h48.6367h43.0078l-12.3564 -41.1934l-7.42188 -24.7432l81.9414 55.9238c9.98242 6.70996 21.3789 10.1914 33.1436 10.1914h261.049zM256 130.422
c-24.2842 12.8486 -48.3721 17.1289 -69.707 17.1279c-42.6621 0 -74.291 -17.1289 -74.291 -17.1289v216.702c24.0732 12.9805 48.1357 17.2998 69.5186 17.2988c42.5684 -0.00195312 74.4795 -17.1289 74.4795 -17.1289s31.9053 17.1289 74.4814 17.1299
c21.3789 0 45.4512 -4.32031 69.5186 -17.2979v-216.703s-31.6221 17.1289 -74.291 17.1289c-21.333 0 -45.4287 -4.28125 -69.709 -17.1289zM368 326.314c-11.8594 4.05859 -24.418 6.10742 -37.5195 6.10742c-29.9814 0 -53.7354 -10.6328 -58.4854 -12.9121v-147.981
c17.1904 5.30957 35.1504 8.02148 53.7139 8.02148c15.6133 0 29.9141 -1.88477 42.291 -4.53125v151.296zM144.001 326.314v-151.297c12.3789 2.64648 26.6777 4.53223 42.291 4.53223c18.5605 0 36.5166 -2.70996 53.7031 -8.01758v147.987
c-4.18359 2.01953 -28.1123 12.9004 -58.4766 12.9023c-13.1006 0.000976562 -25.6572 -2.04785 -37.5176 -6.10742z" />
    <glyph glyph-name="uniF124" unicode="&#xf124;" 
d="M0 10.9697v362.061h512v-362.061h-512zM32 341.03v-298.06h448v298.06h-448zM284.702 150.646l72.2715 72.9219l86.7197 -89.7656l-23.0322 -22.2188l-63.9688 66.2344l-52.1025 -52.5615l18.8379 -24.0479l-25.1885 -19.7188l-100.828 128.703l-104.062 -130.797
l-25.0312 19.9062l129.281 162.547zM255.756 255.499c0 23.4681 11.7337 35.2021 35.2012 35.2021s35.2012 -11.734 35.2012 -35.2021c0 -23.4675 -11.7337 -35.2012 -35.2012 -35.2012c-23.4675 0 -35.2012 11.7337 -35.2012 35.2012z" />
    <glyph glyph-name="uniF101" unicode="&#xf101;" 
d="M364.041 338.444c56.3604 0 147.959 -43.124 147.959 -169.695c0 -129.52 -104.187 -232.741 -157.55 -232.741c-53.3643 0 -71.9111 15.1211 -98.4502 15.1211s-45.0869 -15.1211 -98.4502 -15.1211c-53.3643 0 -157.55 103.222 -157.55 232.741
c0 126.58 91.5986 169.697 147.958 169.696c1.30957 0 2.60449 -0.0224609 3.87402 -0.0683594c35.249 -1.28027 60.8584 -15.4336 79.1318 -25.7412c-1.27246 14.2393 -0.708008 32.1221 4.23535 51.8691c-14.6982 -6.99512 -75.2334 -28.1709 -125.755 66.9658
c0 0 72.0986 10.1465 126.946 -62.4785c6.95312 24.6816 20.9619 52.0156 47.708 79.002l22.7188 -22.5312c-48.4492 -48.8936 -46.8447 -98.2764 -42.4316 -121.443c18.0596 7.40527 48.0625 32.623 95.7822 34.3564
c1.27246 0.0458984 2.55957 0.0683594 3.87305 0.0683594zM354.45 -31.9941c30.3457 0 125.55 83.2969 125.55 200.743c0 47.1064 -14.165 83.5732 -42.0977 108.39c-24.3232 21.6074 -54.1016 29.3057 -73.8623 29.3057
c-0.918945 0 -1.82129 -0.0166016 -2.71191 -0.0488281c-28.0293 -1.01758 -48.791 -12.7334 -65.4727 -22.1465c-13.6914 -7.72754 -25.5166 -14.4004 -39.8555 -14.4004s-26.1641 6.67285 -39.8564 14.4004c-16.6807 9.41309 -37.4434 21.1289 -65.4736 22.1465
c-0.886719 0.0322266 -1.79395 0.0488281 -2.71094 0.0488281c-19.7617 0.000976562 -49.541 -7.69727 -73.8623 -29.3027c-27.9346 -24.8154 -42.0967 -61.2842 -42.0967 -108.394c0 -117.445 95.2041 -200.742 125.55 -200.742c27.0615 0 42.9316 4.27148 58.2783 8.40234
c12.2734 3.30371 24.9648 6.71973 40.1719 6.71973s27.8975 -3.41602 40.1709 -6.71973c15.3467 -4.12988 31.2158 -8.40234 58.2793 -8.40234z" />
    <glyph glyph-name="uniF103" unicode="&#xf103;" 
d="M256 -64c-101.703 0 -211.164 22.2656 -211.163 71.1719c0 5.73828 1.62988 11.0781 4.45605 16.0898l-0.269531 0.175781c27.7344 42.4219 57.5781 135.702 57.5781 240.281c0 78.5605 40.6094 113.997 78.999 126.861c6.10742 32.5977 35.2773 57.4199 70.3994 57.4199
c35.123 0 64.2852 -24.8223 70.3926 -57.4209c38.3857 -12.8652 78.9912 -48.3027 78.9912 -126.859c0 -104.61 29.8594 -197.875 57.5938 -240.266l-0.274414 -0.179688c2.83008 -5.01562 4.46094 -10.3594 4.46094 -16.1025
c0 -48.9062 -109.469 -71.1719 -211.164 -71.1719zM256 -32c116.133 0 178.227 27.4531 179.163 39.1719c-0.0302734 0.355469 -0.295898 0.768555 -0.438477 1.15137c-0.470703 0.745117 -0.942383 1.53809 -1.41406 2.30859
c-10.6816 12.8965 -71.5293 35.6973 -177.312 35.6973c-105.909 0 -166.772 -22.8545 -177.351 -35.7422c-0.452148 -0.740234 -0.905273 -1.50195 -1.35645 -2.21582c-0.15332 -0.400391 -0.423828 -0.829102 -0.456055 -1.19922
c0.9375 -11.7188 63.0234 -39.1719 179.164 -39.1719zM256 416c-14.7637 0 -27.5215 -7.84375 -34.3623 -19.3242c0.0957031 0 0.202148 0.0117188 0.298828 0.0117188h20.2266h9.25781h38.6338c0.0957031 0 0.202148 -0.0117188 0.298828 -0.0117188
c-6.83984 11.4805 -19.5957 19.3242 -34.3535 19.3242zM138.602 263.719c0 -79.6006 -16.7207 -153.563 -37.3086 -206.195c41.0977 14.0742 99.0078 20.8047 154.708 20.8047c55.6904 0 113.595 -6.73047 154.694 -20.8008
c-20.5908 52.6309 -37.3115 126.59 -37.3115 206.191c0 96.0938 -69.4062 100.969 -83.3281 100.969h-38.6338h-9.25781h-20.2266c-13.9141 0 -83.3359 -4.875 -83.3359 -100.969z" />
    <glyph glyph-name="uniF114" unicode="&#xf114;" 
d="M64 122.667h384l64 -141.334h-512zM49.6191 13.333h412.763l-35.0186 77.334h-342.726zM64 146.667v256h384v-256h-384zM96 370.667v-192h320v192h-320zM310.39 289.153l-38.7168 -12.291l41.1748 -41.791l-12.5986 -12.5986l-41.4834 41.4834l-12.291 -40.5615
l-47.3223 111.852z" />
    <glyph glyph-name="uniF109" unicode="&#xf109;" 
d="M511.298 213.424l-7.12695 -10.6592c-0.798828 -1.23242 -19.3135 -30.6338 -6.92285 -70.3115l12.8145 -20.584l-282.401 -175.869l-227.193 152.395v159.817v0v27.7168l293.681 172.071l217.384 -140.649l-2.5752 -1.57422
c-8.19531 -16.335 -25.4766 -63.1777 -6.50586 -83.0684zM293.316 410.416l-232.462 -136.204l164.379 -104.371l226.189 138.275zM228.303 -25.8975l238.625 148.598c-6.25391 19.8916 -6.80762 37.9053 -4.76367 52.9834l-234.87 -147.1l-194.818 128.294v-51.417z
M227.731 66.624l240.403 150.579c-8.91602 19.5283 -7.29004 42.4756 -2.68652 61.9736l-240.534 -147.046l-192.438 122.187v-59.126z" />
    <glyph glyph-name="uniF10B" unicode="&#xf10b;" 
d="M484.465 448c15.207 0 27.5352 -12.6328 27.5361 -28.2158v-344.068c0 -15.583 -12.3281 -28.2158 -27.5352 -28.2158h-265.514c-5.36816 0 -10.6182 -1.60742 -15.1055 -4.62402l-156.6 -106.876l33.3906 111.322h-53.1016c-15.207 0 -27.5361 12.6328 -27.5361 28.2168
v344.245c0 15.583 12.3291 28.2158 27.5361 28.2158h456.929zM480 79.5v336.5h-448v-336.679h48.6367h43.0078l-12.3564 -41.1934l-7.42188 -24.7432l81.9414 55.9238c9.98242 6.70996 21.3789 10.1914 33.1436 10.1914h261.049zM99.0732 322.281v32h319.297v-32h-319.297z
M99.0732 231.141v32h319.297v-32h-319.297zM99.0732 141.406v32h319.297v-32h-319.297z" />
    <glyph glyph-name="uniF10E" unicode="&#xf10e;" 
d="M259.147 402.834l-236.716 -233.077l-22.4268 22.8018l259.424 255.441l80.5225 -81.3506v47.3047h99.9531v-148.282l72.0908 -72.8311l-22.7393 -22.4893zM371.937 381.969v-47.6328l35.9834 -36.3525v83.9854h-35.9834zM80.0762 -64v255.878h351.832v-255.878h-351.832
zM112.062 159.894v-191.909h287.862v191.909h-287.862z" />
    <glyph glyph-name="uniF10A" unicode="&#xf10a;" 
d="M136.328 369.334h375.672v-433.334h-512v433.334h104.328v78.666h32v-78.666zM479.832 337.334h-447.664v-45.999h447.664v45.999zM32.168 -32h447.664v291.336h-447.664v-291.336zM250.703 228.492c22.8125 0 41.5469 -8.82812 56.1875 -26.4844
c14.6416 -17.6562 21.9531 -46.6953 21.9531 -87.1328c0 -41.1406 -7.62402 -70.8281 -22.875 -89.0312c-15.25 -18.2344 -35.1094 -27.3281 -59.5615 -27.3281c-17.6094 0 -31.8438 4.67188 -42.6875 14.0459c-10.8438 9.35938 -17.8125 23.3594 -20.875 41.9844
l41.75 4.60938c1.03125 -8.50098 3.6875 -14.7969 7.9834 -18.8916c4.29688 -4.09375 9.98438 -6.14062 17.0469 -6.14062c8.90723 0 16.4844 4.09375 22.7197 12.2822c6.24902 8.1875 10.2334 25.1885 11.9834 50.9688
c-10.8594 -12.5781 -24.4209 -18.875 -40.6875 -18.875c-17.7178 0 -32.9844 6.82812 -45.8281 20.4844c-12.8438 13.6719 -19.2656 31.4531 -19.2656 53.3594c0 22.8291 6.78125 41.2197 20.3438 55.1963c13.5479 13.9688 30.8281 20.9531 51.8125 20.9531z
M271.969 119.953c5.67188 6.54785 8.51562 16.1719 8.5166 28.8594c0 13.9219 -3.2041 24.7188 -9.59473 32.3906c-6.40625 7.67969 -13.7969 11.5156 -22.1875 11.5156c-7.9834 0 -14.6094 -3.14844 -19.875 -9.4375
c-5.28125 -6.29688 -7.90625 -16.6094 -7.90625 -30.9375c0 -14.5312 2.85938 -25.2031 8.59375 -32.0156c5.73438 -6.79688 12.8916 -10.2031 21.4844 -10.2031c8.29785 0 15.2822 3.2666 20.9688 9.82812zM375.672 369.336v78.6641h32v-78.6641h-32z" />
    <glyph glyph-name="uniF12A" unicode="&#xf12a;" 
d="M205.733 296.149c0 33.5111 16.7555 50.2666 50.2666 50.2666c33.5111 0 50.2666 -16.7555 50.2666 -50.2666c0 -33.5117 -16.7555 -50.2676 -50.2666 -50.2676c-33.5111 0 -50.2666 16.7559 -50.2666 50.2676zM256 234.975c21.7023 0 40.2844 -8.43468 55.7463 -25.304
c15.4619 -16.8694 23.4104 -37.323 23.8455 -61.361h-159.184c0.435104 24.038 8.38361 44.4917 23.8455 61.361c15.4619 16.8694 34.044 25.304 55.7463 25.304zM484.464 448c7.60394 0 14.0943 -2.75479 19.4711 -8.26437
c5.37683 -5.50958 8.06549 -12.1604 8.06598 -19.9524v-344.067c0 -7.79155 -2.68839 -14.4421 -8.06512 -19.9516s-11.8671 -8.26425 -19.471 -8.26425h-265.513c-5.48471 0 -10.5199 -1.54134 -15.1055 -4.62402l-156.601 -106.876l33.3916 111.322h-53.1016
c-7.60407 0 -14.0944 2.75466 -19.4711 8.26397c-5.37668 5.50931 -8.06501 12.1599 -8.06501 19.9519v344.245c0 7.79199 2.68835 14.4428 8.06506 19.9524c5.37671 5.50961 11.8671 8.2644 19.4711 8.2644h456.928zM480 79.5v336.5h-448v-336.679h48.6377h43.0078
l-12.3564 -41.1943l-7.42188 -24.7422l81.9404 55.9238c10.1074 6.79427 21.1552 10.1914 33.1436 10.1914h261.049z" />
    <glyph glyph-name="uniF102" unicode="&#xf102;" 
d="M512 448v-512h-512v512h512zM480.009 416h-448.018v-121.047h448.018v121.047zM480.009 262.953h-448.018v-141.907h448.018v141.907zM31.9912 -32h448.016v121.047h-448.016v-121.047zM191.312 343.297v32h129.375v-32h-129.375zM191.312 8.73438v32h129.375v-32
h-129.375zM191.312 176.453v32h129.375v-32h-129.375z" />
    <glyph glyph-name="uniF112" unicode="&#xf112;" 
d="M312.074 198.679v-12.6426v-2.0791c100.715 -60.5537 104.142 -158.002 102.757 -187.013h40.4912v-60.9443h-397.949v60.9453h39.7959c-1.38574 29.0117 2.04199 126.459 102.757 187.013v2.0791v12.6426v2.0791c-99.9072 60.0674 -104.078 156.434 -102.788 186.297
h-40.46v60.9443h397.949v-60.9453h-39.7646c1.29004 -29.8633 -2.88086 -126.229 -102.788 -186.298v-2.07812zM288.334 160.687l-8.2666 4.5791v20.7705v12.6426v20.7705l8.2666 4.5791c96.502 53.248 96.1943 141.723 94.6152 163.027h-253.898
c-1.58008 -21.3047 -1.88672 -109.78 94.6143 -163.027l8.2666 -4.5791v-20.7705v-12.6426v-20.7705l-8.2666 -4.5791c-97.6836 -53.9004 -96.1738 -143.867 -94.5576 -163.742h253.785c1.61621 19.875 3.12598 109.842 -94.5586 163.742z" />
    <glyph glyph-name="uniF100" unicode="&#xf100;" 
d="M471 448l-0.000976562 -512h-429.999v512h430zM439 -32l-0.000976562 448h-365.999v-448h366zM131.249 321.219c12.3125 2.31348 20.8428 4.46875 25.5938 6.4707v2.625c0 5.0625 -1.25 8.6709 -3.75098 10.8281c-2.5 2.15527 -7.21875 3.23438 -14.1562 3.23438
c-4.6875 0 -8.34277 -0.921875 -10.9678 -2.7666c-2.625 -1.84277 -4.75 -5.07812 -6.375 -9.70312l-23.9062 4.3125c2.6875 9.62598 7.3125 16.751 13.875 21.376c6.5625 4.62402 16.3125 6.93652 29.25 6.93652c11.75 0 20.5 -1.39062 26.25 -4.17188
s9.79688 -6.31348 12.1406 -10.5947c2.34375 -4.28027 3.51562 -12.1406 3.51562 -23.5781l-0.280273 -30.75c0 -8.75 0.421875 -15.2031 1.26465 -19.3594c0.844727 -4.15625 2.42285 -8.60938 4.73438 -13.3594h-26.0625c-0.6875 1.75 -1.53223 4.34375 -2.53223 7.78125
c-0.436523 1.56348 -0.749023 2.59375 -0.936523 3.09375c-4.50098 -4.375 -9.3125 -7.65625 -14.4375 -9.84375c-5.12402 -2.18652 -10.5938 -3.28125 -16.4062 -3.28125c-10.25 0 -18.3281 2.78223 -24.2344 8.34375c-5.90625 5.5625 -8.85938 12.5928 -8.85938 21.0938
c0 5.62402 1.34375 10.6396 4.03125 15.0459s6.45215 7.78125 11.2959 10.125c4.84473 2.34375 11.8281 4.39062 20.9541 6.1416zM156.843 305.281l-0.00195312 5.25c-3.375 -1.125 -8.71777 -2.46875 -16.0303 -4.03125s-12.0938 -3.09277 -14.3438 -4.59375
c-3.4375 -2.43652 -5.15625 -5.53027 -5.15625 -9.28027c0 -3.68848 1.375 -6.87598 4.125 -9.56348s6.25098 -4.03125 10.5 -4.03125c4.75098 0 9.28223 1.5625 13.5947 4.6875c3.18652 2.375 5.28027 5.28125 6.28027 8.71875
c0.6875 2.25 1.03223 6.53223 1.03223 12.8438zM241.56 130.433l-0.00195312 -14.626h-24.4688v137.438h26.3438v-49.499c8.12598 9.25 17.75 13.875 28.875 13.875c12.125 0 22.1572 -4.39062 30.0938 -13.1719c7.93848 -8.78125 11.9072 -21.3916 11.9072 -37.8291
c0 -16.999 -4.04688 -30.0928 -12.1406 -39.2803c-8.09375 -9.18848 -17.9209 -13.7812 -29.4844 -13.7812c-5.6875 0 -11.2959 1.42188 -16.8281 4.26465c-5.53027 2.84473 -10.2959 7.04785 -14.2959 12.6104zM249.528 190.104
c-4.1875 -4.90723 -6.28125 -12.3594 -6.28223 -22.3594c0 -10.3125 1.62598 -17.9385 4.875 -22.875c4.5625 -7 10.625 -10.5 18.1875 -10.5c5.81348 0 10.7656 2.48438 14.8594 7.45312c4.09473 4.96777 6.1416 12.7969 6.1416 23.4834
c0 11.375 -2.0625 19.5791 -6.18848 24.6094c-4.125 5.03125 -9.40625 7.54785 -15.8438 7.54785c-6.31152 0 -11.5615 -2.45312 -15.749 -7.35938zM370.905 19.4688c-14.5625 0 -26.1719 4.59375 -34.8271 13.7832c-8.65625 9.1875 -12.9844 21.9062 -12.9844 38.1562
c0 16.4375 4.34375 29.2344 13.0312 38.3906s20.4375 13.7344 35.249 13.7344c12.125 0 21.7656 -2.60938 28.9219 -7.82812c7.15527 -5.21875 12.2969 -13.1719 15.4219 -23.8594l-25.9688 -4.6875c-0.875 5.18652 -2.8584 9.09375 -5.95312 11.7188
c-3.09375 2.62402 -7.10938 3.93652 -12.0459 3.93652c-6.5625 0 -11.7969 -2.26562 -15.7031 -6.79688c-3.90723 -4.53125 -5.85938 -12.1094 -5.85938 -22.7344c0 -11.8125 1.9834 -20.1572 5.95215 -25.0322c3.96875 -4.87402 9.29688 -7.31152 15.9844 -7.31152
c5.00098 0 9.09375 1.4209 12.2812 4.26465c3.18848 2.84375 5.4375 7.73438 6.75 14.6719l25.875 -4.40625c-2.6875 -11.876 -7.84375 -20.8438 -15.4688 -26.9062s-17.8438 -9.09375 -30.6562 -9.09375z" />
    <glyph glyph-name="uniF12E" unicode="&#xf12e;" 
d="M250.5 168.001v148.919c-14.4365 -13.5 -31.4521 -23.4844 -51.0449 -29.9531v35.8584c10.3115 3.375 21.5146 9.77344 33.6084 19.1953c12.0928 9.42188 20.3896 20.4141 24.8896 32.9766h32.0625v-206.996h-39.5156zM126.931 147.527
c-128.575 49.6094 -126.958 203.427 -126.928 205.018l0.328125 15.6641h81.8633c-5.83594 25.4775 -34.7598 26.7881 -34.7598 26.7881h-28v53h236.695h236.694v-53h-28s-28.9229 -1.31055 -34.7598 -26.7881h81.6035l0.328125 -15.6641
c0.0302734 -1.58984 1.65332 -155.142 -126.577 -204.892c-11.7559 -16.707 -26.627 -33.0518 -45.4199 -48.168v-112.883h59.3203v-50.5986h-286.639v50.5986h59.3203v113.086c-18.625 15.0195 -33.3818 31.25 -45.0703 47.8389zM307.999 -13.3975v90.8223
c-15.3223 -9.05566 -32.4629 -17.3936 -51.8691 -24.6641c-19.5176 7.3125 -36.7412 15.7061 -52.1289 24.8232v-90.9814h103.998zM412.955 199.889c51.5664 40.8525 63.5537 106.459 66.2598 136.319h-50.3896v-25.5283c0 -8.13672 4.5752 -56.1582 -15.8701 -110.791z
M256.13 415.997h-171.625c16.9648 -10.3623 30.9277 -28.5908 30.9277 -56.999v-48.3164c0 -1.15137 -0.0556641 -2.91113 -0.147461 -5.21875c-1.61621 -40.4727 4.75 -88.2021 31.8877 -131.241c0.0439453 -0.0146484 0.0810547 -0.0332031 0.125 -0.0478516
l-0.0351562 -0.108398c21.3633 -33.8105 55.5557 -64.7158 108.866 -86.9023c53.1602 22.123 87.3252 52.9141 108.7 86.6123l-0.12793 0.398438c0.160156 0.0507812 0.298828 0.123047 0.458984 0.176758c27.0703 43.0049 33.4297 90.6787 31.8135 131.111
c-0.0917969 2.30762 -0.147461 4.06641 -0.147461 5.21875v48.3174c0 28.4092 13.9619 46.6367 30.9277 56.999h-171.624zM83.4336 336.209h-50.7734c2.48633 -30.123 14.1582 -96.1348 66.9023 -136.988c-20.7344 54.9072 -16.1289 103.29 -16.1289 111.46v25.5283z" />
    <glyph glyph-name="uniF11B" unicode="&#xf11b;" 
d="M46.998 -16.8711v32h416v-32h-416zM0 38.8115v362.06h512v-362.06h-512zM32 368.871v-298.06h448v298.06h-448z" />
    <glyph glyph-name="uniF12F" unicode="&#xf12f;" 
d="M255.333 382.664l25.752 -74.3896l78.2461 -1.6084l-62.8291 -50.9736l24.8301 -71.0244l-65.0537 41.5869l-65.6104 -40.9209l25.334 75.3066l-63.334 46.6924l78.665 3.99902zM511.668 368.217l0.328125 -15.6719
c0.0302734 -1.58105 1.65527 -155.125 -126.576 -204.891c-11.7568 -16.707 -26.6279 -33.0527 -45.4209 -48.1689v-112.884h59.3203v-50.5977h-286.639v50.5977h59.3203v113.087c-18.626 15.0195 -33.3828 31.25 -45.0713 47.8398
c-128.576 49.623 -126.957 203.434 -126.927 205.017l0.328125 15.6719h81.8623c-5.8418 25.4717 -34.7588 26.7803 -34.7588 26.7803h-28v53h236.695h236.694v-53h-28s-28.917 -1.30859 -34.7588 -26.7803h81.6025zM32.6592 336.218
c2.4873 -30.1299 14.1592 -96.1357 66.9014 -136.992c-20.7314 54.9062 -16.127 103.286 -16.127 111.455v25.5371h-50.7744zM307.999 -13.3984v90.8232c-15.3223 -9.05566 -32.4629 -17.3936 -51.8691 -24.6641c-19.5176 7.3125 -36.7412 15.7061 -52.1289 24.8232
v-90.9824h103.998zM256.13 87.1621c53.1611 22.1221 87.3252 52.9131 108.699 86.6133l-0.12793 0.398438c0.160156 0.0507812 0.298828 0.123047 0.458984 0.176758c27.0713 43.0039 33.4297 90.6787 31.8135 131.111
c-0.0917969 2.30762 -0.147461 4.06641 -0.147461 5.21875v48.3174c0 28.4092 13.9619 46.6367 30.9277 56.999h-171.624h-171.623c16.9648 -10.3623 30.9277 -28.5898 30.9277 -56.999v-48.3174c0 -1.15137 -0.0556641 -2.91113 -0.147461 -5.21875
c-1.61719 -40.4736 4.74902 -88.2021 31.8867 -131.241c0.0439453 -0.0146484 0.0810547 -0.0332031 0.125 -0.0478516l-0.0351562 -0.108398c21.3633 -33.8105 55.5557 -64.7158 108.866 -86.9023zM412.819 199.54c52.4062 40.8789 64.04 106.623 66.5205 136.678h-50.5146
v-25.5371c0 -8.15332 4.58984 -56.3633 -16.0059 -111.141z" />
    <glyph glyph-name="uniF10C" unicode="&#xf10c;" 
d="M188.175 182.33v111.721v121.949h-54.8408v32h242.779v-32h-47.4189v-233.054l162.782 -246.946h-470.953zM432.056 -32l-130.077 197.334l-5.28223 8.01367v9.59766v63.2949c-1.98633 -0.453125 -3.875 -0.748047 -5.56445 -0.863281
c-0.859375 -0.0634766 -1.70312 -0.0947266 -2.54688 -0.0947266c-15.5 0 -26.3281 9.87598 -27.5625 11.0625c-0.9375 0.953125 -23.4219 25.2344 -38.4062 37.3906c-0.53418 0.442383 -1.44336 0.553711 -2.44043 0.56543v-0.25v-111.721v-9.85645l-5.54688 -8.14746
l-133.618 -196.326h351.045zM296.694 282.772v133.224h-76.5205v-89.7344c7.70215 0.0195312 15.6074 -1.98145 22.6113 -7.68164c16.7656 -13.6084 40.0312 -38.7334 41.0156 -39.7959c-0.015625 0.015625 0 0.015625 0 0.015625
c0.1875 0 3.03125 -1.79785 5.1875 -1.50098c2.12598 0.203125 4.78125 2.20312 7.5166 5.625z" />
    <glyph glyph-name="uniF118" unicode="&#xf118;" 
d="M184.401 -12.1104v32h142.607v-32h-142.607zM184.401 -64v32h142.607v-32h-142.607zM414.955 292.176c0 -61.1631 -36.0352 -113.946 -88.3467 -139.453v-99.6934h-141.866v99.999c-51.9629 25.6279 -87.6973 78.2354 -87.6973 139.147
c0 86.0586 71.167 155.824 158.956 155.824c87.7871 0 158.954 -69.7656 158.954 -155.824zM312.583 181.484c43.4072 21.166 70.3721 63.5811 70.373 110.69c0 68.2773 -56.9512 123.824 -126.954 123.824c-70.0049 0 -126.956 -55.5469 -126.956 -123.824
c0 -46.8779 26.7646 -89.1982 69.8516 -110.448l17.8457 -8.80078v-19.8984v-67.999h77.8662v67.6934v19.998zM257.449 390.666l-15.999 -63.998h92.5205l-111.999 -132.868l51.4785 106.433h-78.6094z" />
    <glyph glyph-name="uniF11E" unicode="&#xf11e;" 
d="M256 -16c-43.1719 22.8418 -85.9961 30.4521 -123.926 30.4531c-75.8447 0 -132.074 -30.4521 -132.074 -30.4521v385.246c42.7969 23.0762 85.5781 30.7549 123.591 30.7539c75.6777 -0.00488281 132.409 -30.4531 132.409 -30.4531s56.7217 30.4512 132.409 30.4531
c38.0078 0 80.8008 -7.68164 123.591 -30.7539v-385.247s-56.2188 30.4521 -132.074 30.4521c-37.9238 0 -80.7617 -7.61426 -123.926 -30.4521zM480 349.267c-28.5176 12.4395 -59.2451 18.7324 -91.5908 18.7344c-61.293 0 -109.367 -22.7158 -116.408 -26.2148v-315.785
c34.1211 13.3135 70.2021 20.4512 107.925 20.4512c39.5596 0 74.2812 -7.47461 100.074 -15.4512v318.266zM32 349.267h0.000976562v-318.267c25.793 7.97656 60.5195 15.4531 100.074 15.4531c37.7217 0 73.8037 -7.1377 107.926 -20.4512v315.787
c-4.16113 2.07031 -24.0137 11.4678 -52.9707 18.4355v-155.686l-49.2998 48.2373l-54.3584 -48.2373v159.821c-17.7539 -3.06055 -34.9639 -7.93555 -51.3721 -15.0938z" />
    <glyph glyph-name="uniF113" unicode="&#xf113;" 
d="M280.672 188.38v32h160.672v-32h-160.672zM99.3203 194.838c0 33.5111 16.7559 50.2666 50.2676 50.2666c33.5111 0 50.2666 -16.7555 50.2666 -50.2666s-16.7555 -50.2666 -50.2666 -50.2666c-33.5117 0 -50.2676 16.7555 -50.2676 50.2666zM149.588 133.663
c21.7023 0 40.2844 -8.43468 55.7463 -25.304c15.4619 -16.8694 23.4104 -37.323 23.8455 -61.361h-159.184c0.435097 24.0381 8.38351 44.4918 23.8452 61.3611c15.4618 16.8693 34.044 25.3039 55.7466 25.3039zM281.344 129.723v32h160.656v-32h-160.656z
M281.344 71.7227v32h160.656v-32h-160.656zM512 314.183v-335.874h-512v335.874h200.672v41.8369c0 13.6958 5.34192 25.3986 16.0258 35.1083s23.5607 14.5646 38.6305 14.5646c15.0722 0 27.952 -4.85507 38.6393 -14.5652
c10.6884 -9.71011 16.0325 -21.4127 16.0325 -35.1077v-41.8369h202zM232.672 356.02l0.000976562 -41.8369h45.3271v41.8369c0 4.79294 -2.24185 8.93597 -6.72559 12.4291c-4.48373 3.49585 -9.79916 5.24377 -15.9463 5.24377
c-6.1405 0 -11.4517 -1.74808 -15.9335 -5.2442s-6.72275 -7.63901 -6.72275 -12.4286zM480 10.3086v271.874h-448v-271.874h448z" />
    <glyph glyph-name="uniF127" unicode="&#xf127;" 
d="M76 64c0 113.19 105 158.678 104.999 158.678v131.989h-44.999v93.333h119h2h118.999v-93.333h-44.999v-131.989s104.999 -45.4873 104.999 -158.678h-164v-128h-32v128h-163.999zM181 386.667h32v-32v-131.989v-21.0107l-19.2793 -8.35254
c-2.92969 -1.30566 -65.9648 -30.1738 -82.0234 -97.3145h143.303h2h143.282c-16.373 68.0762 -81.252 96.9902 -82.001 97.3145l-19.2793 8.35254v21.0107v131.989v32h32h12.999v29.333h-87h-2h-87v-29.333h12.999z" />
    <glyph glyph-name="uniF11F" unicode="&#xf11f;" 
d="M256 -16c-43.1719 22.8418 -85.9961 30.4512 -123.926 30.4521c-75.8447 0 -132.074 -30.4512 -132.074 -30.4512v385.246c42.7969 23.0762 85.5781 30.7549 123.591 30.7539c75.6787 -0.00488281 132.409 -30.4531 132.409 -30.4531s56.7217 30.4512 132.409 30.4531
c38.0078 0 80.8008 -7.68164 123.591 -30.7539v-385.247s-56.2188 30.4512 -132.074 30.4512c-37.9238 0 -80.7617 -7.61426 -123.926 -30.4512zM480 349.267c-28.5176 12.4395 -59.2451 18.7324 -91.5908 18.7324c-61.2959 0 -109.37 -22.7158 -116.408 -26.2139v-315.783
c34.1211 13.3115 70.2021 20.4492 107.925 20.4492c39.5596 0 74.2812 -7.47363 100.074 -15.4502v318.266zM32 349.267v-318.269c25.793 7.97656 60.5195 15.4521 100.074 15.4521c37.7217 0 73.8037 -7.13672 107.925 -20.4492v315.787
c-6.76562 3.36719 -54.958 26.207 -116.41 26.2109c-32.3428 0.00292969 -63.0664 -6.29004 -91.5889 -18.7324z" />
    <glyph glyph-name="uniF105" unicode="&#xf105;" 
d="M433.503 416.002c-20.042 -39.6338 -6.5625 -63.2197 -0.832031 -70.6045h21.8057v-409.319h-324.27c-0.25 -0.03125 -1.10156 -0.078125 -2.44531 -0.078125c-7.09375 0 -27.8262 1.60938 -45.4043 17.8584c-16.4746 15.249 -24.834 38.3418 -24.834 68.6357v358.197
c0 37.1064 30.1309 67.3086 67.168 67.3086h321.333v-31.998h-12.5215zM422.479 -31.9238l0.000976562 345.322h-297.786c-12.8828 0 -24.9365 3.65625 -35.1709 9.98438v-300.889c0 -21.0137 4.89746 -36.2002 14.5693 -45.1367
c10.75 -9.95312 24.7412 -9.28125 24.874 -9.32812zM124.691 345.397l271.846 -0.000976562c-2.87598 7.3584 -5.04102 16.2598 -5.59668 26.5293h-172.942v31.998h176.608c1.05859 3.90527 2.36719 7.92578 3.95312 12.0781h-273.868
c-19.3896 0 -35.1699 -15.8428 -35.1699 -35.3105c0 -19.4668 15.7812 -35.2939 35.1699 -35.2939z" />
    <glyph glyph-name="uniF104" unicode="&#xf104;" 
d="M272.005 448v-39.7891h239.995v-58.4023h-33.2598v-309.944h-94.7354v-103.864h-32v47.9365h-192v-47.9365h-32v103.864h-94.75v309.944h-33.2549v58.4023h240.005v39.7891h32zM352.005 15.8945v23.9697h-192v-23.9697h192zM446.739 71.8223v277.986h-381.484v-277.986
h381.484zM129.438 222.085c-2.62598 -1.8418 -4.75 -5.07227 -6.375 -9.69238l-23.9062 4.30664c2.6875 9.61328 7.3125 16.7285 13.876 21.3477c6.56152 4.61914 16.3115 6.92871 29.249 6.92871c11.75 0 20.5 -1.38867 26.25 -4.16602s9.79688 -6.30371 12.1406 -10.5801
c2.34375 -4.27539 3.5166 -12.124 3.5166 -23.5469l-0.28125 -30.709c0 -8.73926 0.421875 -15.1836 1.26562 -19.334c0.84375 -4.15137 2.42188 -8.59863 4.73438 -13.3428h-26.0635c-0.688477 1.74805 -1.53125 4.33887 -2.53125 7.77148
c-0.436523 1.55957 -0.75 2.58984 -0.9375 3.08984c-4.5 -4.36914 -9.3125 -7.64551 -14.4375 -9.83105c-5.12402 -2.18457 -10.5928 -3.27637 -16.4053 -3.27637c-10.251 0 -18.3281 2.77832 -24.2344 8.33301c-5.90723 5.55566 -8.86035 12.5771 -8.86035 21.0664
c0 5.61719 1.34375 10.626 4.03125 15.0264c2.68848 4.40039 6.45312 7.77148 11.2979 10.1113c4.84375 2.34082 11.8281 4.38477 20.9531 6.13281c12.3125 2.31055 20.8438 4.46387 25.5938 6.46094v2.62109c0 5.05566 -1.25 8.66016 -3.75 10.8135
c-2.50098 2.15332 -7.21973 3.23047 -14.1562 3.23047c-4.68848 0 -8.34473 -0.920898 -10.9697 -2.76172zM158.312 185.804l-0.000976562 5.24414c-3.375 -1.12305 -8.71875 -2.46582 -16.0312 -4.02539c-7.31152 -1.56152 -12.0938 -3.08984 -14.3428 -4.58887
c-3.4375 -2.43457 -5.15723 -5.52441 -5.15723 -9.26855c0 -3.68359 1.37598 -6.86621 4.12598 -9.55078s6.25 -4.02637 10.5 -4.02637c4.75 0 9.28125 1.56055 13.5938 4.68164c3.1875 2.37207 5.28125 5.27441 6.28125 8.70703
c0.6875 2.24805 1.03125 6.52344 1.03125 12.8271zM233.5 157.903l-0.000976562 -14.6064h-24.4678v137.258h26.3438v-49.4365c8.125 9.2373 17.749 13.8574 28.874 13.8574c12.125 0 22.1572 -4.38477 30.0947 -13.1543c7.9375 -8.77051 11.9062 -21.3623 11.9062 -37.7783
c0 -16.9775 -4.04688 -30.0547 -12.1406 -39.2295c-8.09375 -9.17578 -17.9209 -13.7637 -29.4834 -13.7637c-5.6875 0 -11.2969 1.41992 -16.8281 4.25977c-5.53223 2.83984 -10.2979 7.03906 -14.2979 12.5938zM241.469 217.496
c-4.1875 -4.89941 -6.28125 -12.3428 -6.28125 -22.3301c0 -10.2988 1.625 -17.9141 4.875 -22.8447c4.56152 -6.99121 10.624 -10.4863 18.1875 -10.4863c5.8125 0 10.7656 2.48145 14.8594 7.44336c4.09375 4.96289 6.14062 12.7803 6.14062 23.4541
c0 11.3604 -2.0625 19.5518 -6.1875 24.5771c-4.12598 5.02441 -9.40625 7.53711 -15.8438 7.53711c-6.3125 0 -11.5625 -2.4502 -15.75 -7.35059zM369.438 141.051c-14.5625 0 -26.1719 4.58691 -34.8281 13.7617c-8.65527 9.1748 -12.9834 21.8779 -12.9834 38.1055
c0 16.417 4.34375 29.1973 13.0312 38.3408c8.68652 9.14355 20.4365 13.7168 35.249 13.7168c12.125 0 21.7656 -2.60645 28.9219 -7.81836c7.15527 -5.21191 12.2959 -13.1543 15.4219 -23.8281l-25.9688 -4.68066c-0.875 5.18164 -2.85938 9.08203 -5.95312 11.7041
c-3.09375 2.62109 -7.10938 3.93164 -12.0469 3.93164c-6.56152 0 -11.7969 -2.26172 -15.7021 -6.78809c-3.90723 -4.52539 -5.86035 -12.0928 -5.86035 -22.7041c0 -11.7969 1.98438 -20.1299 5.95312 -24.998s9.2959 -7.30273 15.9834 -7.30273
c5.00098 0 9.09375 1.41992 12.2822 4.25977c3.1875 2.83984 5.4375 7.72363 6.75 14.6523l25.875 -4.39941c-2.6875 -11.8584 -7.84473 -20.8164 -15.4688 -26.8711c-7.625 -6.05469 -17.8438 -9.08203 -30.6562 -9.08203z" />
    <glyph glyph-name="uniF122" unicode="&#xf122;" 
d="M216.367 311.937c0 -35.5205 -28.7949 -64.3164 -64.3164 -64.3164s-64.3174 28.7959 -64.3174 64.3164c0 35.5215 28.7969 64.3164 64.3174 64.3164c35.5215 0 64.3164 -28.7959 64.3164 -64.3164zM119.719 311.937c0 -17.8281 14.5049 -32.332 32.333 -32.332
c17.8291 0 32.332 14.5039 32.332 32.332c0 17.8291 -14.5039 32.332 -32.332 32.332s-32.333 -14.5039 -32.333 -32.332zM424.266 72.0537c0 -35.5205 -28.7949 -64.3164 -64.3174 -64.3164c-35.5215 0 -64.3164 28.7969 -64.3164 64.3164
c0 35.5215 28.7969 64.3174 64.3164 64.3174c35.5225 0 64.3174 -28.7969 64.3174 -64.3174zM327.617 72.0537c0 -17.8281 14.5059 -32.332 32.332 -32.332c17.8291 0 32.333 14.5039 32.333 32.332c0 17.8291 -14.5049 32.333 -32.333 32.333
s-32.332 -14.5049 -32.332 -32.333zM0.125 -41.3867l489.136 489.387l22.6143 -22.6133l-489.136 -489.387z" />
    <glyph glyph-name="uniF125" unicode="&#xf125;" 
d="M271.989 448v-39.7891h239.676v-58.4023h-33.29v-309.602h-99.8682v-104.207h-31.958v47.9375h-191.749v-47.9375h-31.958v104.207h-89.3662v309.602h-33.1396v58.4023h239.688v39.7891h31.9648zM346.549 15.8945v24.3125h-191.749v-24.3125h191.749zM446.417 72.165
l-0.000976562 277.644h-380.983v-277.644h380.984zM205.8 259.833c0 33.4674 16.7337 50.2012 50.2012 50.2012c33.4668 0 50.2002 -16.7337 50.2002 -50.2012c0 -33.4675 -16.7334 -50.2012 -50.2002 -50.2012c-33.4675 0 -50.2012 16.7337 -50.2012 50.2012z
M335.487 112.188h-158.976c0.434952 24.006 8.37314 44.4325 23.8145 61.2798c15.4417 16.8474 33.9993 25.271 55.6728 25.271c21.6739 0 40.2317 -8.42366 55.6736 -25.271c15.4419 -16.8475 23.3801 -37.2741 23.8147 -61.2798z" />
    <glyph glyph-name="uniF11C" unicode="&#xf11c;" 
d="M0 259.481l256 136.285l256 -133.504l-38.6719 -18.4355v-153.28h-32v138.023l-22.6562 -10.8018v-229.534l-23.3594 12.1094c-137.906 71.4375 -284.078 0.578125 -285.531 -0.125l-23.1094 -11.4531v229.804h0.666016zM386.672 39.6719v162.84l-131.361 -62.627
l-136.639 64.0068v-165.267c46.5312 17.4688 156.094 47.8438 268 1.04688zM440.334 263.547l-184.18 96.0498l-184.622 -98.2852l183.658 -86.0332z" />
    <glyph glyph-name="uniF10F" unicode="&#xf10f;" 
d="M412.939 258.016l-171.656 -205.953l-84.4678 73.8594l21.0615 24.0938l59.8135 -52.2969l150.655 180.797zM475.997 392.717v-456.717h-384v456.717h384zM443.997 -32v392.717h-320v-392.717h320zM36.002 -32.5156v480.516h408v-32h-376v-448.516h-32z" />
    <glyph glyph-name="uniF121" unicode="&#xf121;" 
d="M160 371.257v76.7432h192v-76.7432h-192zM160 60.2529v286.663h192v-286.649l-100.335 -124.267zM204.36 54.0244l48.4473 -65.6709l53.0234 65.6709h-101.471zM244.948 86.0244h20.8438v228.892h-20.8438v-228.892zM320 86.0244v228.892h-22.208v-228.892h22.208z
M212.948 314.916h-20.9482v-228.892h20.9482v228.892z" />
    <glyph glyph-name="uniF12C" unicode="&#xf12c;" 
d="M205.733 266.864c0 33.5111 16.7555 50.2666 50.2666 50.2666c33.5111 0 50.2666 -16.7555 50.2666 -50.2666c0 -33.5117 -16.7555 -50.2676 -50.2666 -50.2676c-33.5111 0 -50.2666 16.7559 -50.2666 50.2676zM256 205.689c21.7023 0 40.2844 -8.43468 55.7463 -25.304
c15.4619 -16.8694 23.4104 -37.323 23.8455 -61.361h-159.184c0.435104 24.038 8.38361 44.4916 23.8455 61.361c15.4619 16.8694 34.044 25.304 55.7463 25.304zM46.999 -16.8711v32h416.001v-32h-416.001zM0 38.8105v362.061h512v-362.061h-512zM32 368.871v-298.061h448
v298.061h-448z" />
    <glyph glyph-name="uniF11D" unicode="&#xf11d;" 
d="M290.097 406.103l0.164062 -393.933c0 -42.0684 -42.3887 -76.1709 -94.6797 -76.1709s-94.6807 34.1025 -94.6807 76.1709c0 42.0674 42.3896 76.1699 94.6807 76.1699c23.9873 0 45.8271 -7.2334 62.5107 -19.0645v378.725l19.082 -3.73535
c1.57812 -0.3125 157.683 -33.4893 130.818 -249.134l-31.7559 3.96875c17.6113 141.321 -51.2588 191.095 -86.1396 207.003zM195.581 -31.9951c33.9736 0 62.6748 20.2256 62.6748 44.166c0 23.9395 -28.7012 44.165 -62.6748 44.165
c-33.9727 0 -62.6748 -20.2256 -62.6748 -44.165c0 -23.9404 28.7012 -44.166 62.6748 -44.166z" />
    <glyph glyph-name="uniF126" unicode="&#xf126;" 
d="M272.005 448v-39.7842h239.995v-58.4053h-33.2598v-309.943h-94.7354v-103.867h-32v47.9385h-192v-47.9385h-32v103.867h-94.75v309.943h-33.2549v58.4053h240.005v39.7842h32zM352.005 15.8984v23.9688h-192v-23.9688h192zM446.739 71.8262v277.984h-381.484v-277.984
h381.484z" />
    <glyph glyph-name="uniF128" unicode="&#xf128;" 
d="M73 74.3066v32h32.666v-32h-32.666zM73 -9.02539v32h32.666v-32h-32.666zM139.667 -7.69336v32h32.667v-32h-32.667zM139 74.3066v32h32.666v-32h-32.666zM205.667 74.9736v32h32.667v-32h-32.667zM205.667 -8.36035v32h32.667v-32h-32.667zM272.334 -8.36035v32h32.665
v-32h-32.665zM272.334 74.3066v32h32.665v-32h-32.665zM406.334 74.3066v32h32.665v-32h-32.665zM339.667 -7.69336v32h32.667v-32h-32.667zM406.334 -8.36035v32h32.665v-32h-32.665zM339.667 74.9736v32h32.667v-32h-32.667zM212.667 241.334v32h32.667v-32h-32.667z
M212.667 186v32h32.667v-32h-32.667zM266 186.667v32h32.666v-32h-32.666zM266.667 241.334v32h32.667v-32h-32.667zM400.672 236.258l-0.0419922 -75.5908h111.37v-224.667h-512v224.668h111.999v75.3555l128 124.063v37.0918l-42.4268 25.4102l42.4268 25.4111v0h32
v-89.125zM143.999 222.477v-61.8105h224.632l0.0400391 61.8877l-113.25 107.923zM480 -32v160.667h-448v-160.667h448z" />
    <glyph glyph-name="uniF111" unicode="&#xf111;" 
d="M92 -64v456.717h384v-456.717h-384zM124 360.717v-392.717h320v392.717h-320zM36 -32.5156v480.516h408v-32h-376v-448.516h-32z" />
    <glyph glyph-name="uniF110" unicode="&#xf110;" 
d="M227.856 218.566c0 37.4271 18.7135 56.1406 56.1406 56.1406c37.4271 0 56.1406 -18.7135 56.1406 -56.1406s-18.7135 -56.1406 -56.1406 -56.1406c-37.4271 0 -56.1406 18.7135 -56.1406 56.1406zM283.997 150.245c24.2379 0 44.9911 -9.42023 62.2596 -28.2607
c17.2685 -18.8404 26.1455 -41.6839 26.631 -68.5303h-177.781c0.485947 26.8466 9.36308 49.6901 26.6314 68.5304c17.2683 18.8404 38.0214 28.2606 62.2592 28.2606zM475.997 392.717v-456.717h-384v456.717h384zM443.997 -32l0.000976562 392.717h-320v-392.717h319.999
zM444.002 448v-32h-376v-448.516h-31.999v480.516h407.999z" />
    <glyph glyph-name="uniF11A" unicode="&#xf11a;" 
d="M162.675 205.429c-28.1875 25.4961 -46.0039 62.2432 -46.0039 103.242c0 76.9482 62.3809 139.329 139.329 139.329c76.9492 0 139.329 -62.3809 139.329 -139.329c0 -40.999 -17.8164 -77.7461 -46.0039 -103.242v-269.429l-90.9814 104.06l-95.6689 -103.653v269.022z
M317.326 21.2168v162.491c-18.5254 -9.10938 -39.2881 -14.3652 -61.3262 -14.3652s-42.8008 5.25488 -61.3262 14.3652v-165.46l64.3262 69.6855zM256 416.001c-59.1816 0 -107.33 -48.1475 -107.33 -107.33c0 -59.1816 48.1484 -107.329 107.33 -107.329
s107.33 48.1475 107.33 107.329c0 59.1826 -48.1484 107.33 -107.33 107.33z" />
    <glyph glyph-name="uniF12B" unicode="&#xf12b;" 
d="M46.999 -16.8711v32h416.001v-32h-416.001zM0 38.8115v362.06h512v-362.06h-512zM32 368.871v-298.06h448v298.06h-448zM197.92 136.434v166.523l144.214 -83.2617z" />
    <glyph glyph-name="uniF12D" unicode="&#xf12d;" 
d="M205.733 334.342c0 33.5111 16.7552 50.2666 50.2656 50.2666c33.5111 0 50.2666 -16.7555 50.2666 -50.2666s-16.7555 -50.2666 -50.2666 -50.2666c-33.5104 0 -50.2656 16.7555 -50.2656 50.2666zM255.999 273.168c21.7022 0 40.2841 -8.43445 55.7457 -25.3034
c15.4616 -16.8689 23.41 -37.3221 23.8451 -61.3597h-159.182c0.435593 24.0376 8.3842 44.4908 23.8458 61.3597c15.4616 16.8689 34.0433 25.3034 55.745 25.3034zM511.668 368.205l0.328125 -15.6709c0.0793457 -4.14639 -0.112427 -10.0145 -0.575317 -17.6044
c-0.462921 -7.58987 -2.89725 -21.0563 -7.30301 -40.3992s-10.5629 -37.4042 -18.4714 -54.1839s-20.6033 -34.0997 -38.0844 -51.9602c-17.4811 -17.8605 -38.1938 -31.4359 -62.1381 -40.7264c-12.5748 -17.8726 -27.7164 -33.9308 -45.4248 -48.1748v-112.884h59.3193
v-50.5977h-286.638v50.5977h59.3193v113.087c-17.5463 14.151 -32.5714 30.0995 -45.0752 47.8457c-24.0089 9.26451 -44.7777 22.8267 -62.3065 40.6865c-17.5288 17.8601 -30.2585 35.1875 -38.1891 51.982c-7.93059 16.7946 -14.1052 34.8757 -18.5237 54.2434
c-4.41855 19.3677 -6.86013 32.8528 -7.32474 40.4552c-0.464605 7.60239 -0.657198 13.48 -0.577779 17.6329l0.328125 15.6709h81.8643c-1.72887 7.55005 -5.76009 13.5704 -12.0936 18.0612c-6.33355 4.49072 -11.1547 7.04315 -14.4634 7.65729
c-3.30874 0.614105 -6.04329 0.971954 -8.20366 1.07355h-28v53h236.695h236.694v-53h-28l-7.39331 -1.03568c-4.92886 -0.69046 -10.29 -3.26834 -16.0835 -7.73367c-5.79343 -4.46533 -9.55475 -10.4729 -11.2839 -18.0226h81.6045zM32.6592 336.206
c5.0075 -60.6581 27.3086 -106.32 66.9033 -136.985c-3.27524 8.67363 -6.06416 17.6329 -8.36678 26.8779c-2.30262 9.24498 -3.98818 17.4058 -5.05669 24.4825c-1.06851 7.07672 -1.86484 14.4166 -2.38897 22.0196
c-0.526672 7.60406 -0.783127 13.4803 -0.769371 17.6287c0.0112152 4.14951 0.0895004 8.58093 0.234863 13.2943c0.145355 4.71335 0.218033 7.09869 0.218033 7.15598v25.5264h-50.7744zM307.999 -13.3984v90.8232c-16.119 -9.52656 -33.4088 -17.7479 -51.8691 -24.6641
c-18.5556 6.95203 -35.9319 15.2264 -52.1289 24.8232v-90.9824h103.998zM256.13 87.1621c48.6938 20.2631 84.9272 49.1346 108.7 86.6143l-0.128906 0.401367l0.464844 0.178711c23.224 36.8995 33.8266 80.601 31.8076 131.104
c-0.0982971 2.47232 -0.147461 4.21225 -0.147461 5.21973v48.3174c0 25.4061 10.3092 44.4058 30.9277 56.999h-171.624h-171.623c20.6185 -12.594 30.9277 -31.5937 30.9277 -56.999v-48.3184c0 -1.00745 -0.0491562 -2.74734 -0.147461 -5.21973
c-2.02087 -50.5707 8.60673 -94.3149 31.8828 -131.232l0.128906 -0.0507812l-0.0361328 -0.111328c23.7722 -37.6242 60.0613 -66.5919 108.867 -86.9033zM412.958 199.894c38.7375 30.6872 60.8231 76.125 66.2568 136.313h-50.3896v-25.5264
c0 -0.075531 0.0725403 -2.448 0.21759 -7.11746c0.145081 -4.66946 0.224457 -9.07037 0.238129 -13.2028s-0.236359 -9.97171 -0.750092 -17.5179c-0.513702 -7.54617 -1.29602 -14.8381 -2.34692 -21.8757c-1.05093 -7.03761 -2.71066 -15.1517 -4.97919 -24.3424
s-5.01743 -18.101 -8.2467 -26.7309z" />
    <glyph glyph-name="uniF116" unicode="&#xf116;" 
d="M64 122.667h384l64 -141.334h-512zM49.6191 13.333h412.763l-35.0186 77.334h-342.726zM220.754 308.876c0 23.4974 11.7487 35.2461 35.2461 35.2461c23.4974 0 35.2461 -11.7487 35.2461 -35.2461s-11.7487 -35.2461 -35.2461 -35.2461
c-23.4974 0 -35.2461 11.7487 -35.2461 35.2461zM256 265.98c15.2175 0 28.2472 -5.91437 39.089 -17.7431c10.843 -11.8287 16.4162 -26.1705 16.7196 -43.0255h-111.619c0.305939 16.8554 5.87971 31.1973 16.7213 43.0258
c10.842 11.8285 23.8717 17.7427 39.0892 17.7427zM64 146.667v256h384v-256h-384zM96 370.667v-192h320v192h-320z" />
    <glyph glyph-name="uniF115" unicode="&#xf115;" 
d="M64 122.667h384l64 -141.334h-512zM49.6191 13.333h412.763l-35.0186 77.334h-342.726zM448 402.667v-256h-384v256h384zM416 178.667v192h-320v-192h320z" />
    <glyph glyph-name="uniF119" unicode="&#xf119;" 
d="M32 448v-480h480v-32h-512v512h32zM394.755 354.412l86.6611 42.1445l30.584 -91.2744l-30.333 -10.1582l-12.1162 36.1387l-78.2695 -224.372l-74 114.5l-76.0469 -146.125l-81.4531 120.141l-62.9365 -120.781l-28.376 14.7812l87.7188 168.344l81.4219 -120.109
l76.6719 147.312l69.1875 -107l55.5605 162.404l-30.2832 -14.7363z" />
    <glyph glyph-name="uniF129" unicode="&#xf129;" 
d="M204 74.2197h-136l-68 117.78l68 117.78h136.001l67.999 -117.78zM86.4756 277.78l-49.5264 -85.7803l49.5264 -85.7803h99.0498l49.5244 85.7803l-49.5244 85.7803h-99.0498zM308 448h136l68 -117.779l-68 -117.778h-136l-67.999 117.778zM425.525 244.441
l49.5234 85.7783l-49.5234 85.7793h-99.0498l-49.5254 -85.7793l49.5254 -85.7783h99.0498zM308 171.559h136l68 -117.778l-68 -117.78h-136l-67.999 117.78zM425.525 -32l49.5234 85.7803l-49.5234 85.7783h-99.0498l-49.5254 -85.7783l49.5254 -85.7803h99.0498z" />
    <glyph glyph-name="uniF107" unicode="&#xf107;" 
d="M241.126 64.2002c-53.4971 0 -97.0254 43.5283 -97.0254 97.0254s43.5283 97.0254 97.0254 97.0254c53.4961 0 97.0244 -43.5283 97.0244 -97.0254c0 -22.4463 -7.7334 -43.082 -20.582 -59.54l47.7373 -48.8594l-22.874 -22.374l-48.4072 49.5449
c-15.2324 -9.9541 -33.3848 -15.7969 -52.8984 -15.7969zM241.126 226.253c-35.8564 0 -65.0273 -29.1709 -65.0273 -65.0273s29.1709 -65.0273 65.0273 -65.0273s65.0273 29.1709 65.0273 65.0273s-29.1709 65.0273 -65.0273 65.0273zM454.477 345.397v-409.319h-324.27
c-0.25 -0.03125 -1.10156 -0.078125 -2.44531 -0.078125c-7.09375 0 -27.8262 1.60938 -45.4043 17.8584c-16.4746 15.249 -24.834 38.3418 -24.834 68.6357v358.197c0 37.1064 30.1309 67.3086 67.168 67.3086h321.333v-31.998h-12.5215
c-20.041 -39.6328 -6.5625 -63.2197 -0.832031 -70.6045h21.8057zM124.691 416.002c-19.3896 0 -35.1699 -15.8428 -35.1699 -35.3115c0 -19.4668 15.7812 -35.2939 35.1699 -35.2939h271.846c-2.87598 7.3584 -5.04102 16.2598 -5.59668 26.5293h-172.942v31.998h176.608
c1.05859 3.90527 2.36719 7.92578 3.95312 12.0781h-273.868zM422.479 -31.9238v345.322h-297.787c-12.8818 0 -24.9355 3.65625 -35.1699 9.98438v-300.889c0 -21.0137 4.89746 -36.2002 14.5693 -45.1367c10.75 -9.95312 24.7412 -9.28125 24.874 -9.32812z" />
    <glyph glyph-name="uniF108" unicode="&#xf108;" 
d="M477.766 167.403c0 -33.3232 -12.7373 -63.6523 -33.4629 -86.6523l67.6973 -69.293l-22.876 -22.374l-68.9453 70.5693c-20.6445 -13.8691 -45.4639 -21.9844 -72.1484 -21.9844c-46.3633 0 -87.0078 24.5205 -109.957 61.1895
c-14.8164 -3.6123 -30.0312 -9.08984 -45.3145 -17.1758c-32.5068 17.1992 -64.7529 22.9287 -93.3115 22.9287c-57.1084 0 -99.4473 -22.9287 -99.4473 -22.9287v290.078c32.2246 17.376 64.4375 23.1572 93.0605 23.1553
c56.9834 -0.00292969 99.6992 -22.9297 99.6992 -22.9297s42.709 22.9297 99.7002 22.9297c28.6182 0 60.8408 -5.78223 93.0596 -23.1553v-80.1797c53.3057 -16.1299 92.2461 -65.6689 92.2461 -124.178zM32 127.55c18.6328 4.97852 41.7461 9.0625 67.4473 9.0625
c26.8955 0 52.7314 -4.63184 77.3184 -13.3271v220.929c-4.34375 2.1582 -39.0322 18.6992 -83.708 18.7021c-21.4639 0.000976562 -41.9277 -3.84961 -61.0576 -11.4688v-223.897zM224.392 128.137c-3.94727 12.3965 -6.11035 25.5791 -6.11035 39.2666
c0 71.5469 58.2031 129.75 129.75 129.75c1.85156 0 3.65332 -0.200195 5.4873 -0.27832v54.5732c-19.1289 7.61816 -39.5938 11.4688 -61.0596 11.4688c-44.2988 0 -78.7705 -16.2607 -83.6934 -18.7002v-220.835c5.16016 1.74609 10.373 3.31543 15.626 4.75488z
M273.597 104.206c17.9434 -21.0938 44.6299 -34.5371 74.4346 -34.5361c53.8906 0 97.7344 43.8438 97.7344 97.7344c0 40.6182 -24.9111 75.5078 -60.2461 90.2461c-9.94141 4.14551 -20.7305 6.59473 -32 7.22461c-1.82715 0.102539 -3.63477 0.27832 -5.4873 0.27832
c-53.9062 0 -97.75 -43.8516 -97.75 -97.75c0 -11.5518 2.11914 -22.5908 5.81543 -32.8867c4.01172 -11.1787 9.94727 -21.4316 17.499 -30.3105z" />
    <glyph glyph-name="uniF106" unicode="&#xf106;" 
d="M199.863 195.371c0 37.4245 18.7122 56.1367 56.1367 56.1367c37.4245 0 56.1367 -18.7122 56.1367 -56.1367c0 -37.4251 -18.7122 -56.1377 -56.1367 -56.1377c-37.4245 0 -56.1367 18.7126 -56.1367 56.1377zM256 127.053c24.2363 0 44.988 -9.41956 62.2552 -28.2587
c17.2672 -18.8391 26.1441 -41.6813 26.6305 -68.5265h-177.771c0.485947 26.8447 9.36266 49.6867 26.6301 68.5261c17.2677 18.8394 38.0195 28.2591 62.2556 28.2591zM454.477 345.397v-409.319h-324.27c-0.416672 -0.0520821 -1.23177 -0.078125 -2.44531 -0.078125
c-17.3901 0 -32.5249 5.9528 -45.4043 17.8584c-16.556 15.3243 -24.834 38.2029 -24.834 68.6357v358.197c2.67029e-05 18.5542 6.56528 34.4108 19.6958 47.5699c13.1305 13.1591 28.9546 19.7387 47.4722 19.7387h321.333v-31.998h-12.5215
c-14.6297 -28.9322 -14.907 -52.467 -0.832031 -70.6045h21.8057zM124.691 416.002c-9.69456 0 -17.9799 -3.45172 -24.8559 -10.3552c-6.87603 -6.90344 -10.314 -15.2222 -10.314 -24.9564c0 -9.73227 3.43779 -18.0477 10.3134 -24.9462
c6.87558 -6.89853 15.1611 -10.3478 24.8566 -10.3478h271.846c-3.21991 8.2384 -5.08548 17.0815 -5.59668 26.5293h-172.942v31.998h176.608c1.07568 3.96841 2.3934 7.99445 3.95312 12.0781h-273.868zM422.479 -31.9238l0.000976562 345.322h-297.786
c-12.6822 0 -24.4059 3.32812 -35.1709 9.98438v-300.889c0 -21.1167 4.85645 -36.1623 14.5693 -45.1367c6.70681 -6.20955 14.9341 -9.31788 24.6817 -9.32498l0.192307 -0.00314331z" />
    <glyph glyph-name="uniF120" unicode="&#xf120;" 
d="M495.691 400.84l5.61523 -5.60547c14.2402 -14.2129 14.2617 -37.4951 0.0478516 -51.7344l-281.893 -282.409c-7.11523 -7.12793 -16.5029 -10.6934 -25.8926 -10.6934c-6.64648 0 -13.2588 1.87793 -19.1006 5.4541c4.35938 -7.16113 10.7139 -20.9932 3.54004 -32.918
c-10.1455 -16.8652 -59.4336 -52.415 -118.261 -50.332s-59.748 72.2012 -59.748 72.2012s18.3867 -45.8271 41.1318 -49.5781c22.7441 -3.75098 53.3926 43.5078 71.0576 72.085c12.0742 19.5312 30.6064 15.6855 44.2637 6.93164
c-8.0791 13.9756 -6.30371 32.207 5.61035 44.1426l281.892 282.407c7.11719 7.12988 16.5039 10.6953 25.8926 10.6953c9.36523 0 18.7324 -3.54883 25.8438 -10.6465zM196.762 83.75l36.1377 36.2041l-11.9883 11.9883l-36.1494 -36.2148
c-1.69629 -1.7002 -1.69336 -4.68164 0.0078125 -6.37891l5.61426 -5.60547c1.05371 -1.05176 2.31348 -1.27344 3.18457 -1.27344c0.875 0 2.1377 0.22168 3.19336 1.28027zM478.654 366.157c1.05371 1.05664 1.27441 2.31738 1.27246 3.18945
c-0.000976562 0.873047 -0.222656 2.13477 -1.2793 3.18848l-5.61426 5.60352c-1.05469 1.05371 -2.31445 1.27539 -3.18555 1.27539c-0.873047 0 -2.13672 -0.22168 -3.19336 -1.28027l-223.088 -223.495l11.9883 -11.9883z" />
    <glyph glyph-name="uniF131" unicode="&#xf131;" 
d="M256 448c141.385 0 256 -114.615 256 -256s-114.615 -256 -256 -256s-256 114.615 -256 256s114.615 256 256 256zM32.8105 176c1.82617 -25.6475 7.81836 -50.1406 17.5869 -72.6963h48.7852c-6.23438 21.8271 -10.249 46.1318 -11.4707 72.6963h-54.9014z
M334.974 207.999h57.2832c-1.44531 27.0234 -6.2373 51.2295 -13.2178 72.6963h-52.4453c4.12695 -22.6172 7.17578 -46.9775 8.37988 -72.6963zM215.646 103.304h80.707c4.51758 24.9346 6.73438 49.2734 7.14453 72.6953h-94.9951
c0.411133 -23.4219 2.62695 -47.7607 7.14355 -72.6953zM289.383 71.3037h-66.7666c7.50195 -28.8008 18.3594 -58.1592 33.3809 -87.5811c15.0234 29.4219 25.8828 58.7803 33.3857 87.5811zM208.938 207.999h94.124c-1.26855 25.8662 -4.53809 50.2393 -8.88184 72.6963
h-76.3613c-4.34277 -22.457 -7.61328 -46.8301 -8.88086 -72.6963zM225.011 312.694h61.9785c-10.001 39.0361 -22.3574 69.8359 -30.9912 88.7979c-8.63281 -18.9619 -20.9883 -49.7617 -30.9873 -88.7979zM319.812 312.694h46.627
c-27.4053 57.8418 -67.5811 89.6465 -79.6738 98.252c9.73047 -21.9639 22.8389 -55.9473 33.0469 -98.252zM225.23 410.948c-12.0879 -8.60156 -52.2666 -40.4062 -79.6748 -98.2539h46.6318c10.207 42.3057 23.3135 76.29 33.043 98.2539zM185.406 280.694h-52.4502
c-6.98242 -21.4668 -11.7734 -45.6738 -13.2178 -72.6963h57.2891c1.2041 25.7188 4.25195 50.0791 8.37891 72.6963zM87.7461 207.999c1.2832 26.585 5.37695 50.8721 11.6582 72.6963h-49.0078c-9.76855 -22.5576 -15.7598 -47.0488 -17.5859 -72.6963h54.9355z
M119.722 176c1.40332 -26.9609 6.21094 -51.1748 13.251 -72.6963h50.1377c-4.18457 24.9268 -6.1582 49.2334 -6.52148 72.6963h-56.8672zM189.736 71.3037h-44.166c27.9346 -58.7969 69.1367 -91.2061 80.4707 -99.3203
c-16.7959 33.4355 -28.4551 66.7373 -36.3047 99.3203zM285.921 -28.0889c11.5996 8.15527 52.9775 40.2949 80.8291 99.3926h-44.4863c-7.85742 -32.6064 -19.5264 -65.9326 -36.3428 -99.3926zM328.891 103.304h50.3564c6.93652 21.4795 11.667 45.6865 13.043 72.6953
h-56.8779c-0.362305 -23.4619 -2.33594 -47.7686 -6.52148 -72.6953zM424.282 176c-1.22168 -26.5645 -5.23535 -50.8691 -11.4697 -72.6963h48.79c9.76855 22.5566 15.7598 47.0488 17.5869 72.6963h-54.9072zM424.248 207.999h54.9424
c-1.8252 25.6484 -7.81641 50.1396 -17.5859 72.6963h-49.0137c6.28027 -21.8242 10.374 -46.1104 11.6572 -72.6963zM444.404 312.694c-22.7695 35.418 -55.2061 63.9229 -93.5928 81.957c17.5488 -20.248 36.1953 -47.5029 50.499 -81.957h43.0938zM161.178 394.647
c-38.3809 -18.0361 -70.8154 -46.5381 -93.582 -81.9531h43.0879c14.3027 34.4512 32.9482 61.7051 50.4941 81.9531zM67.5967 71.3037c22.5967 -35.1484 54.7178 -63.4795 92.7227 -81.5371c-17.4248 20.2705 -35.8086 47.4346 -49.8955 81.5371h-42.8271z
M351.688 -10.2295c38.002 18.0576 70.1211 46.3867 92.7158 81.5332h-42.8301c-14.084 -34.1006 -32.4648 -61.2646 -49.8857 -81.5332z" />
    <glyph glyph-name="uniF123" unicode="&#xf123;" 
d="M446 158.072v-126.072h-446v320l446 -0.647461v-81.8379l15.9961 25.3945l50.0039 -32.0576zM32 64h382v43.2705l-26.4736 -42.0283l-50.2559 31.6562l76.7295 121.814v100.686l-382 0.555664v-255.954zM67.4922 193.5v-21.6562h44.4375v-13.3906h-60.5v79.5391h58.9766
v-13.4609h-42.9141v-17.6328h39.9297v-13.3984h-39.9297zM122.07 178.633v14.0459h55.6162v-14.0459h-55.6162zM122.07 202.72v13.999h55.6162v-13.999h-55.6162zM265.805 214.797c2.92969 -1.71875 5.11719 -4.24219 6.56934 -7.57031
c1.04688 -2.46191 1.56152 -6.44629 1.56152 -11.9385v-36.8359h-15.2422v32.9307c0 5.70996 -0.523438 9.39746 -1.57715 11.0615c-1.40625 2.17285 -3.57812 3.25879 -6.50781 3.25879c-2.13379 0 -4.1416 -0.649414 -6.02344 -1.95312
c-1.88281 -1.30371 -3.23438 -3.20996 -4.07031 -5.72656c-0.827148 -2.50781 -1.25 -6.47656 -1.25 -11.9062v-27.665h-15.2412v31.5713c0 5.6084 -0.274414 9.22656 -0.813477 10.8506c-0.545898 1.625 -1.38184 2.84473 -2.52344 3.63379
c-1.13965 0.796875 -2.6875 1.19531 -4.64062 1.19531c-2.35156 0 -4.46875 -0.633789 -6.35156 -1.89844c-1.875 -1.26562 -3.22656 -3.09473 -4.03809 -5.47656c-0.8125 -2.39062 -1.21875 -6.35156 -1.21875 -11.8828v-27.9922h-15.25v57.6172h14.0547v-7.86719
c5.02246 6.10938 11.0156 9.16406 17.9609 9.16406c3.6875 0 6.89062 -0.757812 9.60156 -2.27344c2.70996 -1.52246 4.93652 -3.82031 6.6709 -6.89062c2.53125 3.07031 5.26562 5.36719 8.19531 6.89062c2.93066 1.51562 6.05566 2.27344 9.38379 2.27344
c4.2334 0 7.81934 -0.860352 10.75 -2.57031zM325.156 180.531l14.9834 -2.55566c-1.5625 -6.86719 -4.54688 -12.0537 -8.95312 -15.5703c-4.42188 -3.49902 -10.3271 -5.26562 -17.75 -5.26562c-8.42188 0 -15.1396 2.67188 -20.1553 7.98438
c-5 5.3125 -7.5166 12.6719 -7.5166 22.0781c0 9.51562 2.5166 16.9219 7.54785 22.2188c5.03125 5.2959 11.8281 7.94531 20.4053 7.94531c7.01562 0 12.5938 -1.50781 16.7344 -4.53223c4.14062 -3.01562 7.10938 -7.61719 8.92188 -13.8047l-15.0303 -2.71094
c-0.500977 3 -1.65625 5.25781 -3.4375 6.78125c-1.79688 1.51562 -4.125 2.28125 -6.98438 2.28125c-3.79688 0 -6.82812 -1.3125 -9.07812 -3.9375c-2.26562 -2.62402 -3.39062 -7.00781 -3.39062 -13.1562c0 -6.83496 1.14062 -11.6631 3.4375 -14.4912
c2.29785 -2.81152 5.3916 -4.21875 9.25098 -4.21875c2.90625 0 5.26562 0.813477 7.10938 2.46973c1.84277 1.64062 3.15527 4.46875 3.90527 8.48438zM362.172 226.32c4.29688 4.00781 6.92188 6.71875 7.90625 8.14258c1.2959 1.96875 1.95215 3.91406 1.95215 5.83496
c0 2.12598 -0.561523 3.75781 -1.70312 4.89941c-1.14062 1.13965 -2.71875 1.70996 -4.73438 1.70996c-1.98438 0 -3.57715 -0.601562 -4.75 -1.79688c-1.17188 -1.19531 -1.84375 -3.1875 -2.03125 -5.96875l-9.5 0.953125
c0.561523 5.24219 2.34375 9.00781 5.32812 11.2891c2.9834 2.28125 6.71875 3.42871 11.1875 3.42871c4.90723 0 8.76562 -1.32715 11.5625 -3.96777c2.81348 -2.64844 4.2041 -5.9375 4.2041 -9.86719c0 -2.24219 -0.389648 -4.375 -1.20312 -6.39941
c-0.796875 -2.02246 -2.0625 -4.14062 -3.8125 -6.3584c-1.15625 -1.46973 -3.23438 -3.5791 -6.23438 -6.33691c-3.01562 -2.75879 -4.90527 -4.59375 -5.71875 -5.5c-0.795898 -0.898438 -1.45215 -1.78125 -1.95215 -2.64062h18.9219v-8.85156h-33.3906
c0.359375 3.34375 1.43652 6.5166 3.24902 9.5166c1.8125 2.99219 5.375 6.96777 10.7188 11.9131z" />
    <glyph glyph-name="uniF10D" unicode="&#xf10d;" 
d="M504.704 97.2441c4.6377 -10.8271 7.2959 -22.4766 7.29492 -34.6885c0 -55.5166 -52.3242 -100.522 -116.869 -100.522c-58.2129 0 -106.479 36.6113 -115.39 84.5225h-47.4814c-8.91113 -47.9111 -57.1758 -84.5225 -115.389 -84.5225
c-64.5459 0 -116.87 45.0059 -116.87 100.522c0 12.2119 2.6582 23.8613 7.2959 34.6885l-0.483398 0.175781l118.126 324.547l78.8125 -43.6172l-15.5 -28.001l-46.0625 25.4932l-82.0459 -225.431c16.8047 8.0459 36.1299 12.666 56.7285 12.666
c58.2129 0 106.479 -36.6104 115.389 -84.5215h47.4814c8.91016 47.9111 57.1758 84.5215 115.39 84.5215c20.5986 0 39.9229 -4.62109 56.7275 -12.666l-82.0459 225.431l-46.0625 -25.4932l-15.5 28.001l78.8125 43.6172l118.125 -324.547zM116.87 -5.9668
c46.7969 0 84.8682 30.7393 84.8682 68.5225c0 37.7842 -38.0713 68.5215 -84.8682 68.5215c-46.7979 0 -84.8701 -30.7373 -84.8701 -68.5215c0 -37.7832 38.0723 -68.5225 84.8701 -68.5225zM395.131 -5.9668c46.7969 0 84.8691 30.7393 84.8691 68.5225
c0 37.7842 -38.0723 68.5215 -84.8691 68.5215c-46.7979 0 -84.8691 -30.7373 -84.8691 -68.5215c0 -37.7832 38.0713 -68.5225 84.8691 -68.5225z" />
  </font>
</defs>
</svg>
